<mxfile host="app.diagrams.net" modified="2021-02-14T00:59:58.639Z" agent="5.0 (Windows)" etag="fYvhprpBBy3n6h-cIT37" version="14.3.1" type="github">
  <diagram id="nxpUVtoWOEUyfi4q1hTX" name="Page-1">
    <mxGraphModel dx="1422" dy="1932" grid="1" gridSize="10" guides="1" tooltips="1" connect="1" arrows="1" fold="1" page="1" pageScale="1" pageWidth="827" pageHeight="1169" math="0" shadow="0">
      <root>
        <mxCell id="0" />
        <mxCell id="1" parent="0" />
        <mxCell id="imWII180QEoIvRpBmYzc-15" style="edgeStyle=orthogonalEdgeStyle;rounded=0;orthogonalLoop=1;jettySize=auto;html=1;" edge="1" parent="1" source="imWII180QEoIvRpBmYzc-1" target="imWII180QEoIvRpBmYzc-14">
          <mxGeometry relative="1" as="geometry" />
        </mxCell>
        <mxCell id="imWII180QEoIvRpBmYzc-1" value="" style="shape=image;html=1;verticalAlign=top;verticalLabelPosition=bottom;labelBackgroundColor=#ffffff;imageAspect=0;aspect=fixed;image=https://cdn4.iconfinder.com/data/icons/web-development-5/500/api-code-window-128.png" vertex="1" parent="1">
          <mxGeometry x="44" y="30" width="100" height="100" as="geometry" />
        </mxCell>
        <mxCell id="imWII180QEoIvRpBmYzc-2" value="" style="dashed=0;outlineConnect=0;html=1;align=center;labelPosition=center;verticalLabelPosition=bottom;verticalAlign=top;shape=mxgraph.webicons.json_2;gradientColor=#DFDEDE" vertex="1" parent="1">
          <mxGeometry x="52.80000000000001" y="180" width="102.4" height="102.4" as="geometry" />
        </mxCell>
        <mxCell id="imWII180QEoIvRpBmYzc-3" value="" style="shape=image;html=1;verticalAlign=top;verticalLabelPosition=bottom;labelBackgroundColor=#ffffff;imageAspect=0;aspect=fixed;image=https://cdn4.iconfinder.com/data/icons/logos-3/512/mongodb-2-128.png" vertex="1" parent="1">
          <mxGeometry x="52.80000000000001" y="330" width="128" height="128" as="geometry" />
        </mxCell>
        <mxCell id="imWII180QEoIvRpBmYzc-4" value="" style="rounded=1;whiteSpace=wrap;html=1;" vertex="1" parent="1">
          <mxGeometry x="31.2" y="600" width="1008.8" height="60" as="geometry" />
        </mxCell>
        <mxCell id="imWII180QEoIvRpBmYzc-5" value="" style="rounded=1;whiteSpace=wrap;html=1;" vertex="1" parent="1">
          <mxGeometry x="31.2" y="680" width="1008.8" height="60" as="geometry" />
        </mxCell>
        <mxCell id="imWII180QEoIvRpBmYzc-6" value="jenkins (CI/CD)" style="text;html=1;strokeColor=none;fillColor=none;align=center;verticalAlign=middle;whiteSpace=wrap;rounded=0;" vertex="1" parent="1">
          <mxGeometry x="430" y="620" width="130" height="20" as="geometry" />
        </mxCell>
        <mxCell id="imWII180QEoIvRpBmYzc-7" value="recursos&amp;nbsp; computacionais Kubenets" style="text;html=1;strokeColor=none;fillColor=none;align=center;verticalAlign=middle;whiteSpace=wrap;rounded=0;" vertex="1" parent="1">
          <mxGeometry x="480" y="700" width="40" height="20" as="geometry" />
        </mxCell>
        <mxCell id="imWII180QEoIvRpBmYzc-8" value="" style="rounded=1;whiteSpace=wrap;html=1;" vertex="1" parent="1">
          <mxGeometry x="40" y="510" width="640" height="60" as="geometry" />
        </mxCell>
        <mxCell id="imWII180QEoIvRpBmYzc-9" value="Airflow" style="text;html=1;strokeColor=none;fillColor=none;align=center;verticalAlign=middle;whiteSpace=wrap;rounded=0;" vertex="1" parent="1">
          <mxGeometry x="295" y="530" width="40" height="20" as="geometry" />
        </mxCell>
        <mxCell id="imWII180QEoIvRpBmYzc-10" value="Fontes de daos" style="rounded=1;whiteSpace=wrap;html=1;" vertex="1" parent="1">
          <mxGeometry x="44" y="-80" width="120" height="60" as="geometry" />
        </mxCell>
        <mxCell id="imWII180QEoIvRpBmYzc-11" value="Leitura" style="rounded=1;whiteSpace=wrap;html=1;" vertex="1" parent="1">
          <mxGeometry x="210" y="-90" width="120" height="60" as="geometry" />
        </mxCell>
        <mxCell id="imWII180QEoIvRpBmYzc-17" style="edgeStyle=orthogonalEdgeStyle;rounded=0;orthogonalLoop=1;jettySize=auto;html=1;" edge="1" parent="1" source="imWII180QEoIvRpBmYzc-14" target="imWII180QEoIvRpBmYzc-16">
          <mxGeometry relative="1" as="geometry" />
        </mxCell>
        <mxCell id="imWII180QEoIvRpBmYzc-14" value="spark" style="rounded=1;whiteSpace=wrap;html=1;" vertex="1" parent="1">
          <mxGeometry x="210" y="40" width="120" height="60" as="geometry" />
        </mxCell>
        <mxCell id="imWII180QEoIvRpBmYzc-39" style="edgeStyle=orthogonalEdgeStyle;rounded=0;orthogonalLoop=1;jettySize=auto;html=1;exitX=1;exitY=0.25;exitDx=0;exitDy=0;" edge="1" parent="1" source="imWII180QEoIvRpBmYzc-16" target="imWII180QEoIvRpBmYzc-28">
          <mxGeometry relative="1" as="geometry" />
        </mxCell>
        <mxCell id="imWII180QEoIvRpBmYzc-45" style="edgeStyle=orthogonalEdgeStyle;rounded=0;orthogonalLoop=1;jettySize=auto;html=1;exitX=1;exitY=0.5;exitDx=0;exitDy=0;" edge="1" parent="1" source="imWII180QEoIvRpBmYzc-16" target="imWII180QEoIvRpBmYzc-44">
          <mxGeometry relative="1" as="geometry" />
        </mxCell>
        <mxCell id="imWII180QEoIvRpBmYzc-46" style="edgeStyle=orthogonalEdgeStyle;rounded=0;orthogonalLoop=1;jettySize=auto;html=1;entryX=0;entryY=0.75;entryDx=0;entryDy=0;" edge="1" parent="1" source="imWII180QEoIvRpBmYzc-16" target="imWII180QEoIvRpBmYzc-36">
          <mxGeometry relative="1" as="geometry" />
        </mxCell>
        <mxCell id="imWII180QEoIvRpBmYzc-16" value="" style="rounded=1;whiteSpace=wrap;html=1;" vertex="1" parent="1">
          <mxGeometry x="380" y="40" width="120" height="60" as="geometry" />
        </mxCell>
        <mxCell id="imWII180QEoIvRpBmYzc-18" value="&lt;div&gt;Kafka&lt;/div&gt;" style="text;html=1;strokeColor=none;fillColor=none;align=center;verticalAlign=middle;whiteSpace=wrap;rounded=0;" vertex="1" parent="1">
          <mxGeometry x="420" y="60" width="40" height="20" as="geometry" />
        </mxCell>
        <mxCell id="imWII180QEoIvRpBmYzc-21" value="mesageria" style="rounded=1;whiteSpace=wrap;html=1;" vertex="1" parent="1">
          <mxGeometry x="380" y="-90" width="120" height="60" as="geometry" />
        </mxCell>
        <mxCell id="imWII180QEoIvRpBmYzc-22" value="persistÃªncia " style="rounded=0;whiteSpace=wrap;html=1;" vertex="1" parent="1">
          <mxGeometry x="560" y="-90" width="120" height="60" as="geometry" />
        </mxCell>
        <mxCell id="imWII180QEoIvRpBmYzc-43" style="edgeStyle=orthogonalEdgeStyle;rounded=0;orthogonalLoop=1;jettySize=auto;html=1;entryX=0.25;entryY=0;entryDx=0;entryDy=0;" edge="1" parent="1" source="imWII180QEoIvRpBmYzc-28" target="imWII180QEoIvRpBmYzc-40">
          <mxGeometry relative="1" as="geometry" />
        </mxCell>
        <mxCell id="imWII180QEoIvRpBmYzc-28" value="Spark" style="rounded=1;whiteSpace=wrap;html=1;" vertex="1" parent="1">
          <mxGeometry x="600" width="120" height="70" as="geometry" />
        </mxCell>
        <mxCell id="imWII180QEoIvRpBmYzc-48" style="edgeStyle=orthogonalEdgeStyle;rounded=0;orthogonalLoop=1;jettySize=auto;html=1;" edge="1" parent="1" source="imWII180QEoIvRpBmYzc-36" target="imWII180QEoIvRpBmYzc-40">
          <mxGeometry relative="1" as="geometry" />
        </mxCell>
        <mxCell id="imWII180QEoIvRpBmYzc-36" value="flume" style="rounded=1;whiteSpace=wrap;html=1;" vertex="1" parent="1">
          <mxGeometry x="600" y="190" width="120" height="60" as="geometry" />
        </mxCell>
        <mxCell id="imWII180QEoIvRpBmYzc-40" value="PBI" style="rounded=1;whiteSpace=wrap;html=1;" vertex="1" parent="1">
          <mxGeometry x="800" y="80" width="120" height="60" as="geometry" />
        </mxCell>
        <mxCell id="imWII180QEoIvRpBmYzc-47" style="edgeStyle=orthogonalEdgeStyle;rounded=0;orthogonalLoop=1;jettySize=auto;html=1;entryX=0;entryY=0.75;entryDx=0;entryDy=0;" edge="1" parent="1" source="imWII180QEoIvRpBmYzc-44" target="imWII180QEoIvRpBmYzc-40">
          <mxGeometry relative="1" as="geometry" />
        </mxCell>
        <mxCell id="imWII180QEoIvRpBmYzc-44" value="SQL" style="rounded=1;whiteSpace=wrap;html=1;" vertex="1" parent="1">
          <mxGeometry x="600" y="100" width="120" height="60" as="geometry" />
        </mxCell>
      </root>
    </mxGraphModel>
  </diagram>
</mxfile>
